<svg height="2494" width="720" xmlns="http://www.w3.org/2000/svg">
<rect height="2494" fill="#555" width="720"></rect>
<text fill="#7f7" font-family="Courier New" font-size="12" xml:space="preserve">
<tspan x="10" y="26">└─┬ cmake-js@3.4.1 </tspan>
<tspan x="10" y="42">  ├── bluebird@2.11.0 </tspan>
<tspan x="10" y="58">  ├─┬ debug@2.6.3 </tspan>
<tspan x="10" y="74">  │ └── ms@0.7.2 </tspan>
<tspan x="10" y="90">  ├─┬ fs-extra@1.0.0 </tspan>
<tspan x="10" y="106">  │ ├── graceful-fs@4.1.11 </tspan>
<tspan x="10" y="122">  │ ├── jsonfile@2.4.0 </tspan>
<tspan x="10" y="138">  │ └── klaw@1.3.1 </tspan>
<tspan x="10" y="154">  ├── is-iojs@1.1.0 </tspan>
<tspan x="10" y="170">  ├── lodash@3.10.1 </tspan>
<tspan x="10" y="186">  ├─┬ memory-stream@0.0.3 </tspan>
<tspan x="10" y="202">  │ └─┬ readable-stream@1.0.34 </tspan>
<tspan x="10" y="218">  │   ├── core-util-is@1.0.2 </tspan>
<tspan x="10" y="234">  │   ├── isarray@0.0.1 </tspan>
<tspan x="10" y="250">  │   └── string_decoder@0.10.31 </tspan>
<tspan x="10" y="266">  ├─┬ npmconf@2.1.2 </tspan>
<tspan x="10" y="282">  │ ├─┬ config-chain@1.1.11 </tspan>
<tspan x="10" y="298">  │ │ └── proto-list@1.2.4 </tspan>
<tspan x="10" y="314">  │ ├── inherits@2.0.3 </tspan>
<tspan x="10" y="330">  │ ├── ini@1.3.4 </tspan>
<tspan x="10" y="346">  │ ├─┬ mkdirp@0.5.1 </tspan>
<tspan x="10" y="362">  │ │ └── minimist@0.0.8 </tspan>
<tspan x="10" y="378">  │ ├─┬ nopt@3.0.6 </tspan>
<tspan x="10" y="394">  │ │ └── abbrev@1.1.0 </tspan>
<tspan x="10" y="410">  │ ├─┬ once@1.3.3 </tspan>
<tspan x="10" y="426">  │ │ └── wrappy@1.0.2 </tspan>
<tspan x="10" y="442">  │ ├─┬ osenv@0.1.4 </tspan>
<tspan x="10" y="458">  │ │ ├── os-homedir@1.0.2 </tspan>
<tspan x="10" y="474">  │ │ └── os-tmpdir@1.0.2 </tspan>
<tspan x="10" y="490">  │ ├── semver@4.3.6 </tspan>
<tspan x="10" y="506">  │ └── uid-number@0.0.5 </tspan>
<tspan x="10" y="522">  ├─┬ npmlog@1.2.1 </tspan>
<tspan x="10" y="538">  │ ├── ansi@0.3.1 </tspan>
<tspan x="10" y="554">  │ ├─┬ are-we-there-yet@1.0.6 </tspan>
<tspan x="10" y="570">  │ │ ├── delegates@1.0.0 </tspan>
<tspan x="10" y="586">  │ │ └─┬ readable-stream@2.2.6 </tspan>
<tspan x="10" y="602">  │ │   ├── buffer-shims@1.0.0 </tspan>
<tspan x="10" y="618">  │ │   ├── isarray@1.0.0 </tspan>
<tspan x="10" y="634">  │ │   ├── process-nextick-args@1.0.7 </tspan>
<tspan x="10" y="650">  │ │   └── util-deprecate@1.0.2 </tspan>
<tspan x="10" y="666">  │ └─┬ gauge@1.2.7 </tspan>
<tspan x="10" y="682">  │   ├── has-unicode@2.0.1 </tspan>
<tspan x="10" y="698">  │   ├── lodash.pad@4.5.1 </tspan>
<tspan x="10" y="714">  │   ├── lodash.padend@4.6.1 </tspan>
<tspan x="10" y="730">  │   └── lodash.padstart@4.6.1 </tspan>
<tspan x="10" y="746">  ├─┬ request@2.81.0 </tspan>
<tspan x="10" y="762">  │ ├── aws-sign2@0.6.0 </tspan>
<tspan x="10" y="778">  │ ├── aws4@1.6.0 </tspan>
<tspan x="10" y="794">  │ ├── caseless@0.12.0 </tspan>
<tspan x="10" y="810">  │ ├─┬ combined-stream@1.0.5 </tspan>
<tspan x="10" y="826">  │ │ └── delayed-stream@1.0.0 </tspan>
<tspan x="10" y="842">  │ ├── extend@3.0.0 </tspan>
<tspan x="10" y="858">  │ ├── forever-agent@0.6.1 </tspan>
<tspan x="10" y="874">  │ ├─┬ form-data@2.1.2 </tspan>
<tspan x="10" y="890">  │ │ └── asynckit@0.4.0 </tspan>
<tspan x="10" y="906">  │ ├─┬ har-validator@4.2.1 </tspan>
<tspan x="10" y="922">  │ │ ├─┬ ajv@4.11.5 </tspan>
<tspan x="10" y="938">  │ │ │ ├── co@4.6.0 </tspan>
<tspan x="10" y="954">  │ │ │ └─┬ json-stable-stringify@1.0.1 </tspan>
<tspan x="10" y="970">  │ │ │   └── jsonify@0.0.0 </tspan>
<tspan x="10" y="986">  │ │ └── har-schema@1.0.5 </tspan>
<tspan x="10" y="1002">  │ ├─┬ hawk@3.1.3 </tspan>
<tspan x="10" y="1018">  │ │ ├── boom@2.10.1 </tspan>
<tspan x="10" y="1034">  │ │ ├── cryptiles@2.0.5 </tspan>
<tspan x="10" y="1050">  │ │ ├── hoek@2.16.3 </tspan>
<tspan x="10" y="1066">  │ │ └── sntp@1.0.9 </tspan>
<tspan x="10" y="1082">  │ ├─┬ http-signature@1.1.1 </tspan>
<tspan x="10" y="1098">  │ │ ├── assert-plus@0.2.0 </tspan>
<tspan x="10" y="1114">  │ │ ├─┬ jsprim@1.4.0 </tspan>
<tspan x="10" y="1130">  │ │ │ ├── assert-plus@1.0.0 </tspan>
<tspan x="10" y="1146">  │ │ │ ├── extsprintf@1.0.2 </tspan>
<tspan x="10" y="1162">  │ │ │ ├── json-schema@0.2.3 </tspan>
<tspan x="10" y="1178">  │ │ │ └── verror@1.3.6 </tspan>
<tspan x="10" y="1194">  │ │ └─┬ sshpk@1.11.0 </tspan>
<tspan x="10" y="1210">  │ │   ├── asn1@0.2.3 </tspan>
<tspan x="10" y="1226">  │ │   ├── assert-plus@1.0.0 </tspan>
<tspan x="10" y="1242">  │ │   ├── bcrypt-pbkdf@1.0.1 </tspan>
<tspan x="10" y="1258">  │ │   ├─┬ dashdash@1.14.1 </tspan>
<tspan x="10" y="1274">  │ │   │ └── assert-plus@1.0.0 </tspan>
<tspan x="10" y="1290">  │ │   ├── ecc-jsbn@0.1.1 </tspan>
<tspan x="10" y="1306">  │ │   ├─┬ getpass@0.1.6 </tspan>
<tspan x="10" y="1322">  │ │   │ └── assert-plus@1.0.0 </tspan>
<tspan x="10" y="1338">  │ │   ├── jodid25519@1.0.2 </tspan>
<tspan x="10" y="1354">  │ │   ├── jsbn@0.1.1 </tspan>
<tspan x="10" y="1370">  │ │   └── tweetnacl@0.14.5 </tspan>
<tspan x="10" y="1386">  │ ├── is-typedarray@1.0.0 </tspan>
<tspan x="10" y="1402">  │ ├── isstream@0.1.2 </tspan>
<tspan x="10" y="1418">  │ ├── json-stringify-safe@5.0.1 </tspan>
<tspan x="10" y="1434">  │ ├─┬ mime-types@2.1.15 </tspan>
<tspan x="10" y="1450">  │ │ └── mime-db@1.27.0 </tspan>
<tspan x="10" y="1466">  │ ├── oauth-sign@0.8.2 </tspan>
<tspan x="10" y="1482">  │ ├── performance-now@0.2.0 </tspan>
<tspan x="10" y="1498">  │ ├── qs@6.4.0 </tspan>
<tspan x="10" y="1514">  │ ├── safe-buffer@5.0.1 </tspan>
<tspan x="10" y="1530">  │ ├── stringstream@0.0.5 </tspan>
<tspan x="10" y="1546">  │ ├─┬ tough-cookie@2.3.2 </tspan>
<tspan x="10" y="1562">  │ │ └── punycode@1.4.1 </tspan>
<tspan x="10" y="1578">  │ ├── tunnel-agent@0.6.0 </tspan>
<tspan x="10" y="1594">  │ └── uuid@3.0.1 </tspan>
<tspan x="10" y="1610">  ├── semver@5.3.0 </tspan>
<tspan x="10" y="1626">  ├── splitargs@0.0.7 </tspan>
<tspan x="10" y="1642">  ├─┬ tar@1.0.3 </tspan>
<tspan x="10" y="1658">  │ ├── block-stream@0.0.9 </tspan>
<tspan x="10" y="1674">  │ └─┬ fstream@1.0.11 </tspan>
<tspan x="10" y="1690">  │   └─┬ rimraf@2.6.1 </tspan>
<tspan x="10" y="1706">  │     └─┬ glob@7.1.1 </tspan>
<tspan x="10" y="1722">  │       └── fs.realpath@1.0.0 </tspan>
<tspan x="10" y="1738">  ├─┬ traceur@0.0.111 </tspan>
<tspan x="10" y="1754">  │ ├─┬ commander@2.9.0 </tspan>
<tspan x="10" y="1770">  │ │ └── graceful-readlink@1.0.1 </tspan>
<tspan x="10" y="1786">  │ ├─┬ glob@5.0.15 </tspan>
<tspan x="10" y="1802">  │ │ ├── inflight@1.0.6 </tspan>
<tspan x="10" y="1818">  │ │ ├─┬ minimatch@3.0.3 </tspan>
<tspan x="10" y="1834">  │ │ │ └─┬ brace-expansion@1.1.6 </tspan>
<tspan x="10" y="1850">  │ │ │   ├── balanced-match@0.4.2 </tspan>
<tspan x="10" y="1866">  │ │ │   └── concat-map@0.0.1 </tspan>
<tspan x="10" y="1882">  │ │ └── path-is-absolute@1.0.1 </tspan>
<tspan x="10" y="1898">  │ ├── rsvp@3.5.0 </tspan>
<tspan x="10" y="1914">  │ ├── semver@4.3.6 </tspan>
<tspan x="10" y="1930">  │ └─┬ source-map-support@0.2.10 </tspan>
<tspan x="10" y="1946">  │   └─┬ source-map@0.1.32 </tspan>
<tspan x="10" y="1962">  │     └── amdefine@1.0.1 </tspan>
<tspan x="10" y="1978">  ├─┬ unzip@0.1.11 </tspan>
<tspan x="10" y="1994">  │ ├─┬ binary@0.3.0 </tspan>
<tspan x="10" y="2010">  │ │ ├── buffers@0.1.1 </tspan>
<tspan x="10" y="2026">  │ │ └─┬ chainsaw@0.1.0 </tspan>
<tspan x="10" y="2042">  │ │   └── traverse@0.3.9 </tspan>
<tspan x="10" y="2058">  │ ├─┬ fstream@0.1.31 </tspan>
<tspan x="10" y="2074">  │ │ └─┬ graceful-fs@3.0.11 </tspan>
<tspan x="10" y="2090">  │ │   └── natives@1.1.0 </tspan>
<tspan x="10" y="2106">  │ ├── match-stream@0.0.2 </tspan>
<tspan x="10" y="2122">  │ ├─┬ pullstream@0.4.1 </tspan>
<tspan x="10" y="2138">  │ │ ├── over@0.0.5 </tspan>
<tspan x="10" y="2154">  │ │ └── slice-stream@1.0.0 </tspan>
<tspan x="10" y="2170">  │ └── setimmediate@1.0.5 </tspan>
<tspan x="10" y="2186">  ├── url-join@0.0.1 </tspan>
<tspan x="10" y="2202">  ├─┬ which@1.2.14 </tspan>
<tspan x="10" y="2218">  │ └── isexe@2.0.0 </tspan>
<tspan x="10" y="2234">  └─┬ yargs@3.32.0 </tspan>
<tspan x="10" y="2250">    ├── camelcase@2.1.1 </tspan>
<tspan x="10" y="2266">    ├─┬ cliui@3.2.0 </tspan>
<tspan x="10" y="2282">    │ ├─┬ strip-ansi@3.0.1 </tspan>
<tspan x="10" y="2298">    │ │ └── ansi-regex@2.1.1 </tspan>
<tspan x="10" y="2314">    │ └── wrap-ansi@2.1.0 </tspan>
<tspan x="10" y="2330">    ├── decamelize@1.2.0 </tspan>
<tspan x="10" y="2346">    ├─┬ os-locale@1.4.0 </tspan>
<tspan x="10" y="2362">    │ └─┬ lcid@1.0.0 </tspan>
<tspan x="10" y="2378">    │   └── invert-kv@1.0.0 </tspan>
<tspan x="10" y="2394">    ├─┬ string-width@1.0.2 </tspan>
<tspan x="10" y="2410">    │ ├── code-point-at@1.1.0 </tspan>
<tspan x="10" y="2426">    │ └─┬ is-fullwidth-code-point@1.0.0 </tspan>
<tspan x="10" y="2442">    │   └── number-is-nan@1.0.1 </tspan>
<tspan x="10" y="2458">    ├── window-size@0.1.4 </tspan>
<tspan x="10" y="2474">    └── y18n@3.2.1</tspan>
</text>
</svg>
